<svg xmlns="http://www.w3.org/2000/svg" width="21" height="21" viewBox="0 0 21 21">
  <metadata><?xpacket begin="﻿" id="W5M0MpCehiHzreSzNTczkc9d"?>
<x:xmpmeta xmlns:x="adobe:ns:meta/" x:xmptk="Adobe XMP Core 5.6-c138 79.159824, 2016/09/14-01:09:01        ">
   <rdf:RDF xmlns:rdf="http://www.w3.org/1999/02/22-rdf-syntax-ns#">
      <rdf:Description rdf:about=""/>
   </rdf:RDF>
</x:xmpmeta>
                                                                                                    
                                                                                                    
                                                                                                    
                                                                                                    
                                                                                                    
                                                                                                    
                                                                                                    
                                                                                                    
                                                                                                    
                                                                                                    
                                                                                                    
                                                                                                    
                                                                                                    
                                                                                                    
                                                                                                    
                                                                                                    
                                                                                                    
                                                                                                    
                                                                                                    
                                                                                                    
                           
<?xpacket end="w"?></metadata>
<defs>
    <style>
      .cls-1 {
        fill: #101112;
        fill-rule: evenodd;
      }
    </style>
  </defs>
  <path id="Smiley-SVG" class="cls-1" d="M176.05,665.125s3.388,6.125,9.625,6.125c6.362,0,9.275-6.125,9.275-6.125a1.345,1.345,0,0,1,0,2.625,11.107,11.107,0,0,1-9.275,5.25c-6.274,0-9.625-5.25-9.625-5.25A1.345,1.345,0,0,1,176.05,665.125ZM180.687,652c1.692,0,3.063,1.959,3.063,4.375s-1.371,4.375-3.063,4.375-3.062-1.959-3.062-4.375S179,652,180.687,652Zm10.5,0c1.692,0,3.063,1.959,3.063,4.375s-1.371,4.375-3.063,4.375-3.062-1.959-3.062-4.375S189.5,652,191.187,652Z" transform="translate(-175 -652)"/>
</svg>
